# xmcd CD database file
#
# Track frame offsets:
#	183
#	11833
#	24670
#	37175
#	50108
#	61883
#	75645
#	89788
#	104355
#	117393
#	129868
#	143755
#	157043
#	170075
#	183920
#	197880
#	211143
#	225115
#	238273
#	251485
#	266773
#	281015
#	294858
#	307963
#
# Disc length: 4280 seconds
#
# Revision: 1
# Processed by: cddbd v1.5.2PL0 Copyright (c) Steve Scherf et al.
# Submitted via: CDex 1.85
#
DISCID=5d10b618
DTITLE=Bix Beiderbecke - Bix 1927-1930
DYEAR=1900
DGENRE=Jazz
TTITLE0=Riverboat shuffle ( The Volverine Orchestra)
TTITLE1=Big boy ( B B, J Harwell, G Johnson, B Gillette, M Leibrook, V. More)
TTITLE2=Flock o'blues
TTITLE3=Davenport blues (The Sioux City Six)
TTITLE4=My pretty girl (Jean Goldkette and His Orchestra)
TTITLE5=Singin' the blues (Frankie Trumbauer and His Orchestra)
TTITLE6=Ostrich walk (Frankie Trumbauer and His Orchestra)
TTITLE7=I'm comin' Virginia (Frankie Trumbauer and His Orchestra)
TTITLE8=Way down yonder in New Orlens (Frankie Trumbauer and His Orchestra)
TTITLE9=In a mist (Bixology) (B B)
TTITLE10=Clementine(from New Orleans) (Jean Goldkette and His Orchestra)
TTITLE11=Wringin' and Twistin' (Trombauer, B B and Lang in Their Three Piece Oechestra)
TTITLE12=At the jazz band ball (B B and His Gang)
TTITLE13=Royal garden blues (B B and His Gang)
TTITLE14=The jazz me blues (B B and His Gang)
TTITLE15=Sorry (B B and His Gang)
TTITLE16=Since my best gal turned me down (B B and His Gang)
TTITLE17=Changes (Paul Whiteman and His orchestra)
TTITLE18=There'll come a time (Frankie Trumbauer and His Orchestra)
TTITLE19=San (Paul Whiteman and His orchestra)
TTITLE20=Mississippi mud (Frankie Trumbauer and His Orchestra)
TTITLE21=From monday on (Paul Whiteman and His orchestra)
TTITLE22=You took advantage of me  (Paul Whiteman dir, and & and ...)
TTITLE23=Margie (B B and His Gang)
EXTD=
EXTT0=
EXTT1=
EXTT2=
EXTT3=
EXTT4=
EXTT5=
EXTT6=
EXTT7=
EXTT8=
EXTT9=
EXTT10=
EXTT11=
EXTT12=
EXTT13=
EXTT14=
EXTT15=
EXTT16=
EXTT17=
EXTT18=
EXTT19=
EXTT20=
EXTT21=
EXTT22=
EXTT23=
PLAYORDER=
